# xmcd
#
# Track frame offsets: 
#        150
#        49752
#        89540
#        103957
#        147605
#        175890
#
# Disc length: 2772 seconds
#
# Revision: 5
# Processed by: cddbd v1.5.2PL0 Copyright (c) Steve Scherf et al.
# Submitted via: ExactAudioCopy v0.99pb5
#
DISCID=570ad206
DTITLE=Chick Corea - Touchstone
DYEAR=1992
DGENRE=Stretch Records
TTITLE0=Touchstone
TTITLE1=The Yellow Nimbus
TTITLE2=Duende
TTITLE3=Compadres
TTITLE4=Estancia
TTITLE5=Dance Of Chance
EXTD=
EXTT0=
EXTT1=
EXTT2=
EXTT3=
EXTT4=
EXTT5=
PLAYORDER=
